<?xml version="1.0" standalone="no"?>
<!DOCTYPE svg PUBLIC "-//W3C//DTD SVG 20010904//EN"
 "http://www.w3.org/TR/2001/REC-SVG-20010904/DTD/svg10.dtd">
<svg version="1.0" xmlns="http://www.w3.org/2000/svg"
 width="512.000000pt" height="512.000000pt" viewBox="0 0 512.000000 512.000000"
 preserveAspectRatio="xMidYMid meet">
<metadata>
Created by potrace 1.14, written by Peter Selinger 2001-2017
</metadata>
<g transform="translate(0.000000,512.000000) scale(0.100000,-0.100000)"
fill="#000000" stroke="none">
<path d="M1282 5103 c-18 -9 -43 -30 -55 -47 l-22 -31 -3 -1062 c-1 -585 -4
-1063 -6 -1063 -2 0 -30 13 -62 29 -329 162 -752 95 -986 -158 -305 -329 -106
-801 390 -923 122 -30 303 -30 426 0 110 28 252 95 328 156 66 53 147 163 180
245 l23 56 5 1135 5 1134 91 -114 c282 -358 445 -651 490 -884 15 -76 16 -99
6 -160 -21 -122 -108 -280 -232 -422 -75 -85 -80 -164 -15 -229 38 -38 85 -51
142 -40 106 20 342 371 393 585 66 280 -37 603 -335 1050 -178 267 -549 706
-628 744 -44 20 -93 20 -135 -1z"/>
<path d="M4425 3982 c-280 -120 -535 -231 -565 -245 -30 -14 -282 -123 -560
-242 -278 -119 -516 -226 -529 -238 -53 -49 -51 -7 -51 -1132 0 -575 -2 -1045
-4 -1045 -2 0 -37 16 -77 35 -122 58 -215 77 -364 78 -101 1 -149 -4 -217 -21
-393 -97 -615 -417 -507 -731 99 -286 462 -477 823 -431 296 37 525 196 614
426 l27 69 3 975 3 975 422 179 c232 99 622 265 867 369 245 105 460 196 478
204 l32 13 0 -620 0 -620 -60 30 c-157 79 -375 109 -553 76 -273 -52 -493
-221 -563 -432 -26 -81 -26 -227 0 -308 65 -196 257 -354 511 -421 95 -25 264
-30 374 -11 266 47 483 209 564 421 l22 60 3 1343 c2 1227 1 1346 -14 1378
-22 47 -67 76 -123 81 -42 4 -92 -16 -556 -215z"/>
</g>
</svg>
